<svg width="60" height="103" viewBox="0 0 60 103" fill="none" xmlns="http://www.w3.org/2000/svg">
<path fill-rule="evenodd" clip-rule="evenodd" d="M58.1164 92.4201L17.1714 51.5L58.1164 10.5799C59.2945 9.39953 59.2945 7.47364 58.1164 6.29325L53.7028 1.88529C52.5246 0.704903 50.5946 0.704903 49.4165 1.88529L6.68064 44.5952C6.54743 44.6898 6.41719 44.7993 6.29878 44.9176L1.88518 49.3286C1.28723 49.9262 0.994168 50.7131 1.00009 51.5C0.994168 52.2869 1.28723 53.0738 1.88518 53.6714L6.29878 58.0824C6.41719 58.2007 6.54743 58.3102 6.68064 58.4048L49.4165 101.115C50.5946 102.295 52.5246 102.295 53.7028 101.115L58.1164 96.7068C59.2945 95.5264 59.2945 93.6005 58.1164 92.4201V92.4201Z" fill="#FFA501" stroke="#FFA501" stroke-width="0.1693" stroke-miterlimit="22.9256"/>
</svg>
