<?xml version="1.0" encoding="UTF-8"?>
<!DOCTYPE svg PUBLIC "-//W3C//DTD SVG 1.1//EN" "http://www.w3.org/Graphics/SVG/1.1/DTD/svg11.dtd">
<!-- Creator: CorelDRAW 2018 (64-Bit Evaluation Version) -->
<svg xmlns="http://www.w3.org/2000/svg" xml:space="preserve" width="4.2332mm" height="4.2332mm" version="1.1" style="shape-rendering:geometricPrecision; text-rendering:geometricPrecision; image-rendering:optimizeQuality; fill-rule:evenodd; clip-rule:evenodd"
viewBox="0 0 423.32 423.32"
 xmlns:xlink="http://www.w3.org/1999/xlink">
 <defs>
  <style type="text/css">
   <![CDATA[
    .str0 {stroke:#FFA501;stroke-width:16.93;stroke-miterlimit:22.9256}
    .fil0 {fill:#FFA501}
   ]]>
  </style>
 </defs>
 <g id="Layer_x0020_1">
  <metadata id="CorelCorpID_0Corel-Layer"/>
  <path class="fil0 str0" d="M131.75 341.51l138.32 -138.32 -138.32 -138.32c-3.98,-3.99 -3.98,-10.5 0,-14.49l14.91 -14.9c3.98,-3.99 10.5,-3.99 14.48,0l144.37 144.37c0.45,0.32 0.89,0.69 1.29,1.09l14.91 14.91c2.02,2.02 3.01,4.68 2.99,7.34 0.02,2.66 -0.97,5.32 -2.99,7.34l-14.91 14.91c-0.4,0.4 -0.84,0.77 -1.29,1.09l-144.37 144.37c-3.98,3.99 -10.5,3.99 -14.48,0l-14.91 -14.9c-3.98,-3.99 -3.98,-10.5 0,-14.49z"/>
 </g>
</svg>
