<svg width="60" height="103" viewBox="0 0 60 103" fill="none" xmlns="http://www.w3.org/2000/svg">
<path fill-rule="evenodd" clip-rule="evenodd" d="M1.88361 92.4201L42.8286 51.5L1.88361 10.5799C0.705464 9.39953 0.705464 7.47364 1.88361 6.29325L6.29721 1.88529C7.47535 0.704903 9.40538 0.704903 10.5835 1.88529L53.3194 44.5952C53.4526 44.6898 53.5828 44.7993 53.7012 44.9176L58.1148 49.3286C58.7128 49.9262 59.0058 50.7131 58.9999 51.5C59.0058 52.2869 58.7128 53.0738 58.1148 53.6714L53.7012 58.0824C53.5828 58.2007 53.4526 58.3102 53.3194 58.4048L10.5835 101.115C9.40538 102.295 7.47535 102.295 6.29721 101.115L1.88361 96.7068C0.705464 95.5264 0.705464 93.6005 1.88361 92.4201V92.4201Z" fill="#FFA501" stroke="#FFA501" stroke-width="0.1693" stroke-miterlimit="22.9256"/>
</svg>
